<?xml version="1.0" standalone="no"?>
<!DOCTYPE svg PUBLIC "-//W3C//DTD SVG 20010904//EN"
 "http://www.w3.org/TR/2001/REC-SVG-20010904/DTD/svg10.dtd">
<svg version="1.0" xmlns="http://www.w3.org/2000/svg"
 width="900.000000pt" height="270.000000pt" viewBox="0 0 900.000000 270.000000"
 preserveAspectRatio="xMidYMid meet">
<metadata>
Created by potrace 1.10, written by Peter Selinger 2001-2011
</metadata>
<g transform="translate(0.000000,270.000000) scale(0.100000,-0.100000)"
fill="#ffffff" stroke="none">
<path d="M1804 2341 l-32 -29 21 -17 c26 -23 73 -24 94 -2 16 16 15 19 -12 47
-16 16 -31 30 -34 30 -3 0 -20 -13 -37 -29z"/>
<path d="M1606 2328 c-14 -18 -26 -34 -26 -37 1 -3 17 -14 36 -23 36 -16 37
-16 60 9 29 31 29 32 7 50 -44 33 -50 34 -77 1z"/>
<path d="M2015 2321 c-34 -20 -36 -27 -14 -59 14 -20 22 -22 58 -16 22 4 41 8
41 10 0 6 -50 84 -53 83 -1 0 -15 -8 -32 -18z"/>
<path d="M1414 2284 c-3 -11 -10 -27 -15 -36 -13 -25 -13 -25 28 -31 31 -5 40
-2 61 20 23 25 23 27 6 40 -10 7 -23 13 -30 13 -7 0 -19 3 -28 6 -10 4 -18 -1
-22 -12z"/>
<path d="M1722 2248 c-20 -20 -14 -28 23 -28 19 0 35 4 35 8 0 12 -22 32 -35
32 -6 0 -16 -5 -23 -12z"/>
<path d="M2191 2244 c-31 -14 -32 -16 -17 -33 9 -10 16 -23 16 -29 0 -20 19
-23 51 -7 20 11 29 21 25 31 -3 9 -6 24 -6 35 0 23 -21 24 -69 3z"/>
<path d="M1905 2236 c-18 -13 -18 -14 2 -25 22 -11 53 -6 53 10 0 18 -37 28
-55 15z"/>
<path d="M1542 2218 c-20 -20 -14 -29 21 -26 20 2 32 8 32 18 0 19 -36 25 -53
8z"/>
<path d="M1235 2195 c-11 -37 -14 -65 -8 -66 5 0 20 -2 34 -4 20 -2 32 4 48
26 12 16 19 33 17 38 -8 13 -88 19 -91 6z"/>
<path d="M4173 2188 c-39 -27 -57 -76 -50 -130 14 -106 151 -141 222 -57 20
24 25 41 25 83 0 47 -4 56 -37 89 -31 32 -43 37 -82 37 -32 0 -56 -7 -78 -22z"/>
<path d="M5787 2173 c-33 -33 -37 -42 -37 -89 0 -64 28 -104 88 -123 73 -25
149 22 159 97 12 88 -42 152 -128 152 -39 0 -51 -5 -82 -37z"/>
<path d="M2072 2183 c2 -12 14 -19 36 -21 33 -3 40 6 20 26 -19 19 -60 15 -56
-5z"/>
<path d="M1646 2183 c-12 -12 -5 -23 14 -23 11 0 20 4 20 9 0 11 -26 22 -34
14z"/>
<path d="M1372 2149 c-17 -26 -10 -33 23 -25 18 5 25 12 23 24 -5 25 -31 26
-46 1z"/>
<path d="M1985 2160 c3 -5 13 -10 21 -10 8 0 14 5 14 10 0 6 -9 10 -21 10 -11
0 -17 -4 -14 -10z"/>
<path d="M1480 2130 c0 -5 6 -10 14 -10 8 0 18 5 21 10 3 6 -3 10 -14 10 -12
0 -21 -4 -21 -10z"/>
<path d="M2340 2120 c0 -29 36 -60 70 -60 28 0 30 2 30 40 l0 40 -50 0 c-43 0
-50 -3 -50 -20z"/>
<path d="M2145 2100 c3 -5 13 -10 21 -10 8 0 12 5 9 10 -3 6 -13 10 -21 10 -8
0 -12 -4 -9 -10z"/>
<path d="M2244 2094 c3 -9 6 -18 6 -20 0 -2 12 -4 26 -4 20 0 25 4 20 16 -3 9
-6 18 -6 20 0 2 -12 4 -26 4 -20 0 -25 -4 -20 -16z"/>
<path d="M1080 2030 c0 -47 11 -63 25 -40 3 6 14 10 24 10 13 0 20 9 24 33 6
42 2 47 -39 47 l-34 0 0 -50z"/>
<path d="M1216 2041 c-12 -13 -14 -21 -6 -26 14 -9 63 23 55 35 -10 16 -30 12
-49 -9z"/>
<path d="M1320 2050 c0 -5 7 -10 15 -10 8 0 15 5 15 10 0 6 -7 10 -15 10 -8 0
-15 -4 -15 -10z"/>
<path d="M2290 2012 c0 -5 7 -16 16 -23 14 -12 16 -11 13 5 -4 20 -29 35 -29
18z"/>
<path d="M2490 1970 c0 -42 6 -48 50 -52 22 -3 25 1 28 35 3 39 2 40 -50 51
-27 6 -28 5 -28 -34z"/>
<path d="M2396 1991 c-10 -16 5 -41 25 -41 23 0 26 35 3 44 -20 8 -22 8 -28
-3z"/>
<path d="M1195 1949 c-4 -6 -5 -13 -2 -16 7 -7 27 6 27 18 0 12 -17 12 -25 -2z"/>
<path d="M967 1918 c-25 -9 -27 -13 -21 -42 8 -41 12 -46 32 -46 32 1 52 26
52 64 0 39 -10 43 -63 24z"/>
<path d="M1080 1905 c0 -28 3 -29 31 -15 28 15 24 40 -6 40 -20 0 -25 -5 -25
-25z"/>
<path d="M2420 1886 c0 -8 5 -18 10 -21 6 -3 10 3 10 14 0 12 -4 21 -10 21 -5
0 -10 -6 -10 -14z"/>
<path d="M2498 1864 c-7 -6 23 -64 33 -64 15 0 16 29 3 49 -15 21 -26 26 -36
15z"/>
<path d="M3215 1850 c-140 -20 -233 -104 -261 -238 -17 -80 -17 -128 -1 -202
39 -175 155 -250 390 -250 134 0 178 -13 203 -61 13 -26 13 -32 0 -58 -29 -55
-60 -61 -309 -61 -220 0 -227 -1 -251 -22 -61 -54 -56 -180 9 -219 27 -17 54
-19 265 -19 309 0 385 16 466 96 47 48 70 97 85 186 23 136 -22 281 -104 340
-80 57 -149 74 -341 82 -94 4 -112 8 -132 27 -13 12 -26 30 -29 40 -9 26 22
78 53 91 16 7 120 14 263 17 268 7 267 6 289 87 19 66 -2 130 -50 155 -31 17
-58 19 -265 18 -126 -1 -252 -5 -280 -9z"/>
<path d="M4065 1853 c-48 -13 -79 -74 -72 -142 6 -57 34 -92 83 -106 l39 -11
5 -399 c5 -380 6 -401 25 -426 54 -72 195 -60 226 19 13 32 19 887 7 966 -5
33 -16 59 -33 75 -24 25 -32 26 -143 28 -64 1 -126 -1 -137 -4z"/>
<path d="M4840 1851 c-143 -23 -244 -133 -270 -292 -15 -96 -12 -724 4 -769
15 -41 62 -69 119 -70 42 0 70 11 105 43 l22 20 0 349 c0 470 -5 459 219 466
142 5 141 5 141 -78 0 -60 22 -104 62 -126 31 -18 98 -17 141 1 53 22 67 68
67 226 0 138 -9 178 -50 214 -21 19 -37 20 -269 21 -135 1 -266 -1 -291 -5z"/>
<path d="M5694 1854 c-12 -3 -32 -16 -45 -30 -19 -21 -23 -35 -23 -94 -1 -80
16 -107 82 -125 l37 -11 5 -399 c6 -443 5 -441 72 -464 79 -28 149 -3 179 62
17 39 19 72 19 500 0 488 -1 499 -50 542 -19 17 -38 20 -139 22 -64 1 -126 -1
-137 -3z"/>
<path d="M6465 1851 c-112 -15 -205 -85 -250 -189 -28 -64 -26 -248 3 -312 23
-50 87 -130 104 -130 7 0 19 -6 27 -13 32 -27 100 -40 241 -46 131 -5 148 -8
178 -30 29 -21 33 -28 30 -64 -3 -37 -8 -44 -43 -64 -38 -22 -50 -23 -268 -23
l-229 0 -27 -28 c-55 -54 -50 -170 8 -209 33 -22 41 -23 275 -22 243 0 311 8
386 42 135 61 202 245 153 421 -27 100 -66 149 -158 197 -40 21 -146 37 -279
43 -95 4 -112 8 -132 27 -28 26 -32 73 -9 106 23 33 90 43 293 43 104 0 204 3
221 6 98 20 106 209 10 243 -35 12 -446 13 -534 2z"/>
<path d="M2607 1808 c-10 -64 58 -94 75 -33 9 35 -13 65 -47 65 -18 0 -24 -7
-28 -32z"/>
<path d="M1087 1813 c-4 -3 -7 -13 -7 -21 0 -12 3 -12 15 -2 8 7 15 16 15 21
0 11 -14 12 -23 2z"/>
<path d="M1003 1783 c-7 -2 -13 -21 -13 -41 l0 -36 20 22 c11 12 20 30 20 42
0 20 -5 23 -27 13z"/>
<path d="M868 1734 c-32 -17 -34 -26 -13 -44 8 -7 15 -18 15 -26 0 -23 17 -24
44 -3 21 17 26 28 24 53 -4 37 -28 44 -70 20z"/>
<path d="M2517 1744 c-8 -8 3 -34 14 -34 5 0 9 9 9 20 0 19 -11 26 -23 14z"/>
<path d="M2580 1687 c0 -8 9 -22 19 -31 18 -17 20 -16 26 5 5 14 2 25 -6 30
-21 13 -39 11 -39 -4z"/>
<path d="M1015 1667 c-4 -10 -5 -21 -1 -24 10 -10 18 4 13 24 -4 17 -4 17 -12
0z"/>
<path d="M2680 1641 c-15 -30 -12 -45 13 -69 26 -25 47 -28 47 -8 0 7 7 19 15
26 19 16 20 40 1 40 -7 0 -19 7 -26 15 -17 21 -37 19 -50 -4z"/>
<path d="M936 1607 c-13 -10 -16 -20 -12 -35 4 -12 11 -22 16 -22 12 0 30 34
30 54 0 19 -10 20 -34 3z"/>
<path d="M2580 1576 c0 -22 3 -27 11 -19 8 8 8 16 0 30 -9 16 -10 14 -11 -11z"/>
<path d="M815 1536 l-29 -24 28 -36 c27 -36 29 -37 45 -19 25 27 32 50 21 78
-12 31 -27 31 -65 1z"/>
<path d="M2640 1500 c0 -23 4 -30 20 -30 23 0 27 29 8 48 -19 19 -28 14 -28
-18z"/>
<path d="M960 1485 c0 -8 5 -15 10 -15 6 0 10 7 10 15 0 8 -4 15 -10 15 -5 0
-10 -7 -10 -15z"/>
<path d="M2725 1450 c-3 -11 -11 -20 -16 -20 -17 0 -9 -40 11 -60 l20 -20 30
22 c38 27 38 38 0 71 -36 32 -37 32 -45 7z"/>
<path d="M896 1422 c-7 -12 4 -52 15 -52 12 0 27 33 22 48 -5 14 -29 16 -37 4z"/>
<path d="M2607 1418 c-3 -8 -2 -21 3 -27 11 -19 23 5 12 25 -8 14 -10 14 -15
2z"/>
<path d="M812 1347 c-39 -27 -39 -45 -1 -75 l29 -24 20 24 c24 29 25 44 2 73
l-19 24 -31 -22z"/>
<path d="M2656 1337 c-21 -16 -16 -47 8 -47 21 0 27 14 18 39 -7 19 -10 20
-26 8z"/>
<path d="M956 1323 c-4 -9 -2 -21 4 -27 7 -7 10 -2 10 17 0 31 -5 34 -14 10z"/>
<path d="M2710 1243 c-11 -15 -18 -33 -15 -41 3 -7 5 -21 5 -29 0 -19 53 -11
76 11 13 14 12 19 -8 51 -13 19 -26 35 -30 35 -4 0 -16 -12 -28 -27z"/>
<path d="M907 1244 c-14 -14 -7 -39 14 -52 19 -12 20 -11 17 19 -3 32 -17 46
-31 33z"/>
<path d="M830 1138 c-7 -18 -15 -36 -18 -40 -2 -5 8 -12 21 -17 14 -6 28 -15
32 -21 10 -17 45 18 45 46 0 20 -41 64 -59 64 -4 0 -13 -15 -21 -32z"/>
<path d="M983 1154 c-3 -8 -1 -20 6 -27 8 -8 11 -4 11 16 0 30 -7 35 -17 11z"/>
<path d="M2627 1155 c-25 -18 -15 -55 13 -48 21 6 23 16 12 45 -6 14 -10 15
-25 3z"/>
<path d="M956 1058 c-9 -35 -8 -38 19 -38 30 0 33 20 6 44 -17 16 -19 16 -25
-6z"/>
<path d="M2550 1059 c0 -11 5 -17 10 -14 6 3 10 13 10 21 0 8 -4 14 -10 14 -5
0 -10 -9 -10 -21z"/>
<path d="M2662 1054 c-23 -16 -32 -77 -12 -89 11 -7 92 26 86 35 -1 3 -9 20
-16 38 -16 36 -26 39 -58 16z"/>
<path d="M1040 986 c0 -17 14 -29 23 -20 8 8 -3 34 -14 34 -5 0 -9 -6 -9 -14z"/>
<path d="M2567 982 c-23 -26 -22 -52 3 -52 16 0 20 7 20 35 0 40 -1 41 -23 17z"/>
<path d="M905 966 c-17 -56 -15 -65 14 -81 17 -8 34 -15 39 -15 13 0 21 61 11
81 -10 20 -59 31 -64 15z"/>
<path d="M7397 962 c-45 -30 -56 -53 -57 -113 0 -65 23 -99 79 -118 23 -7 164
-11 442 -11 376 0 411 1 451 19 98 42 105 161 12 222 -27 18 -55 19 -464 19
-404 0 -437 -1 -463 -18z"/>
<path d="M2480 920 c-9 -16 -8 -20 5 -20 8 0 15 9 15 20 0 11 -2 20 -5 20 -2
0 -9 -9 -15 -20z"/>
<path d="M1037 903 c-13 -13 -7 -32 14 -43 27 -15 32 -9 20 24 -10 26 -21 32
-34 19z"/>
<path d="M2585 883 c-11 -3 -23 -10 -27 -17 -8 -11 -11 -86 -4 -86 4 0 80 31
83 34 5 5 -19 76 -25 75 -4 -1 -16 -4 -27 -6z"/>
<path d="M2467 822 c-24 -26 -21 -44 6 -40 16 2 23 11 25 31 4 31 -8 35 -31 9z"/>
<path d="M1008 764 c-5 -40 -6 -39 45 -48 l37 -7 0 39 c0 36 -3 40 -31 46 -46
9 -46 9 -51 -30z"/>
<path d="M2365 781 c-6 -11 9 -23 19 -14 9 9 7 23 -3 23 -6 0 -12 -4 -16 -9z"/>
<path d="M1140 741 c0 -16 6 -21 26 -21 33 0 30 33 -4 38 -17 3 -22 -2 -22
-17z"/>
<path d="M1262 718 c2 -6 10 -14 16 -16 7 -2 10 2 6 12 -7 18 -28 22 -22 4z"/>
<path d="M2437 723 c-4 -3 -7 -24 -7 -45 0 -37 1 -38 35 -38 35 0 35 0 35 45
0 43 -1 45 -28 45 -16 0 -32 -3 -35 -7z"/>
<path d="M2320 685 c-6 -8 -9 -19 -6 -24 11 -18 55 8 56 32 0 13 -37 7 -50 -8z"/>
<path d="M2227 674 c-4 -4 -4 -10 -1 -15 6 -10 34 0 34 12 0 10 -24 12 -33 3z"/>
<path d="M1142 618 l3 -43 45 0 c38 0 45 3 48 21 4 27 -40 64 -75 64 -22 0
-24 -3 -21 -42z"/>
<path d="M1290 620 c0 -16 7 -20 30 -20 28 0 30 2 20 20 -6 11 -20 20 -30 20
-13 0 -20 -7 -20 -20z"/>
<path d="M1400 635 c0 -18 19 -40 26 -32 4 4 0 15 -9 24 -9 10 -17 13 -17 8z"/>
<path d="M2160 576 c0 -19 32 -30 42 -14 13 21 9 28 -17 28 -15 0 -25 -6 -25
-14z"/>
<path d="M2268 560 c-19 -34 -17 -37 40 -46 l42 -7 0 42 c0 40 -1 41 -32 41
-26 0 -37 -6 -50 -30z"/>
<path d="M1562 561 c2 -7 7 -12 11 -12 12 1 9 15 -3 20 -7 2 -11 -2 -8 -8z"/>
<path d="M1445 550 c-7 -12 22 -39 43 -40 12 0 28 27 21 35 -12 11 -58 15 -64
5z"/>
<path d="M1316 503 c3 -27 8 -49 9 -51 1 -1 15 4 31 13 16 8 37 15 47 15 21 0
23 16 2 24 -8 3 -15 15 -15 26 0 17 -6 20 -41 20 l-40 0 7 -47z"/>
<path d="M1732 538 c6 -18 28 -21 28 -4 0 9 -7 16 -16 16 -9 0 -14 -5 -12 -12z"/>
<path d="M1895 540 c3 -5 12 -10 20 -10 8 0 17 5 20 10 4 6 -5 10 -20 10 -15
0 -24 -4 -20 -10z"/>
<path d="M1990 520 c-13 -9 -13 -12 4 -25 14 -11 22 -11 37 -2 11 7 18 16 16
22 -5 14 -39 17 -57 5z"/>
<path d="M1629 504 c-21 -25 19 -45 51 -24 13 8 12 11 -5 24 -25 19 -30 19
-46 0z"/>
<path d="M2092 481 l-21 -29 24 -16 c39 -25 63 -20 78 17 13 31 13 32 -16 45
-39 16 -40 16 -65 -17z"/>
<path d="M1805 490 c-12 -19 26 -40 47 -26 10 6 17 15 15 21 -5 14 -54 18 -62
5z"/>
<path d="M1525 470 c-3 -5 -15 -10 -26 -10 -17 0 -18 -3 -8 -22 6 -13 18 -31
26 -40 14 -16 17 -16 49 -1 40 20 41 25 12 58 -23 26 -43 32 -53 15z"/>
<path d="M1900 435 l-24 -26 29 -24 c38 -31 45 -30 73 6 l24 29 -24 20 c-31
26 -50 25 -78 -5z"/>
<path d="M1708 433 c-34 -17 -34 -21 -3 -56 31 -33 33 -33 67 -2 29 25 29 49
0 59 -9 3 -21 8 -27 10 -5 2 -22 -3 -37 -11z"/>
</g>
</svg>
