<?xml version="1.0" standalone="no"?>
<!DOCTYPE svg PUBLIC "-//W3C//DTD SVG 20010904//EN"
 "http://www.w3.org/TR/2001/REC-SVG-20010904/DTD/svg10.dtd">
<svg version="1.0" xmlns="http://www.w3.org/2000/svg"
 width="900.000000pt" height="540.000000pt" viewBox="0 0 900.000000 540.000000"
 preserveAspectRatio="xMidYMid meet">
<metadata>
Created by potrace 1.10, written by Peter Selinger 2001-2011
</metadata>
<g transform="translate(0.000000,540.000000) scale(0.100000,-0.100000)"
fill="#ffffff" stroke="none">
<path d="M4255 4374 c-115 -19 -238 -103 -286 -196 -28 -56 -24 -83 19 -125
67 -68 179 -91 272 -56 25 9 47 19 50 23 3 3 22 16 43 30 43 28 97 106 97 139
0 55 -79 77 -149 42 -45 -23 -57 -41 -47 -67 6 -15 8 -15 29 0 41 30 69 38 83
24 41 -43 -93 -138 -194 -138 -80 0 -132 41 -118 93 26 105 217 176 400 148
42 -6 101 -11 131 -11 33 0 55 -4 55 -11 0 -6 -28 -38 -63 -72 -52 -52 -122
-152 -151 -217 -3 -8 -16 -31 -27 -50 -12 -19 -45 -76 -75 -126 -93 -159 -188
-233 -310 -242 -180 -13 -251 164 -110 272 28 21 46 26 91 26 50 0 58 -3 90
-36 38 -39 55 -38 55 6 0 36 -55 86 -106 96 -66 12 -133 -2 -180 -40 -61 -46
-78 -72 -92 -134 -23 -101 22 -196 108 -235 36 -16 67 -20 155 -20 104 0 115
2 176 31 41 20 85 51 115 83 27 28 57 59 67 68 9 8 17 19 17 23 0 4 20 41 45
81 25 41 45 77 45 80 0 6 79 145 100 177 6 8 13 22 17 30 11 24 91 138 113
160 17 17 33 20 103 20 45 -1 102 -5 127 -10 27 -5 77 -5 125 1 122 15 205 58
205 105 0 33 -12 36 -77 18 -67 -18 -268 -21 -378 -5 -76 11 -521 22 -570 15z"/>
<path d="M4839 4196 c-32 -22 -79 -77 -79 -92 0 -3 -13 -26 -30 -51 -16 -24
-30 -46 -30 -49 0 -2 -11 -22 -25 -44 -18 -29 -32 -40 -50 -40 -30 0 -39 -14
-24 -38 13 -20 10 -29 -21 -77 -11 -16 -31 -50 -45 -75 -30 -53 -39 -68 -83
-133 -35 -51 -38 -73 -11 -90 22 -14 61 11 82 50 85 166 157 263 193 263 56 0
57 -46 4 -120 -117 -163 -124 -181 -79 -195 23 -8 45 -1 127 37 l63 30 23 -25
c13 -14 40 -29 60 -32 49 -10 157 12 214 42 64 34 72 42 72 69 0 33 -28 31
-90 -7 -63 -39 -145 -46 -179 -15 -37 33 -27 46 36 46 48 0 65 5 103 31 25 17
54 45 63 61 25 43 22 100 -5 126 -37 34 -71 37 -123 11 -66 -33 -104 -83 -171
-224 -21 -43 -61 -72 -88 -62 -15 6 -15 10 7 39 40 54 85 141 92 178 8 46 -20
76 -62 66 -81 -21 -110 -1 -41 28 68 28 101 48 131 80 66 72 87 165 45 203
-37 33 -43 33 -79 9z m61 -71 c0 -48 -112 -187 -133 -166 -9 9 75 157 98 173
17 13 35 9 35 -7z m185 -325 c9 -28 -10 -56 -55 -85 -87 -55 -125 -37 -74 36
44 64 116 91 129 49z"/>
<path d="M3050 4092 c-8 -5 -33 -13 -55 -16 -22 -4 -49 -13 -60 -20 -11 -7
-38 -16 -61 -19 -22 -4 -69 -22 -105 -42 -35 -19 -74 -39 -86 -44 -11 -5 -24
-15 -28 -20 -3 -6 -14 -11 -23 -11 -9 0 -30 -11 -47 -24 -21 -17 -33 -21 -45
-14 -23 15 -95 -27 -185 -107 -42 -38 -83 -75 -89 -80 -22 -20 -82 -57 -166
-102 -14 -7 -35 -13 -47 -13 -12 0 -25 -5 -28 -10 -4 -6 -10 -8 -15 -5 -16 10
31 47 109 87 94 48 114 60 124 76 4 6 17 12 27 12 11 0 20 7 20 15 0 9 -9 15
-25 15 -14 0 -25 -4 -25 -9 0 -5 -10 -13 -22 -16 -29 -8 -65 -24 -154 -68 -39
-20 -113 -46 -164 -57 -82 -20 -98 -21 -134 -9 -69 21 -115 52 -126 83 -8 24
-12 27 -25 16 -17 -14 -20 -66 -5 -104 18 -48 77 -103 119 -110 21 -3 58 -17
82 -31 38 -21 56 -25 135 -25 50 0 110 6 135 14 24 7 71 21 104 31 76 22 132
51 168 87 16 15 37 28 48 28 16 0 19 -7 19 -50 l0 -50 116 0 c111 0 117 1 172
32 31 17 68 42 82 54 14 13 38 34 53 48 34 31 117 151 117 169 0 8 18 32 40
55 44 47 90 58 90 22 0 -18 -32 -60 -45 -60 -3 0 -16 -10 -30 -22 -25 -21 -33
-52 -17 -62 5 -3 7 -18 4 -35 -10 -68 38 -145 113 -181 73 -35 109 -21 64 26
-32 34 -18 71 31 79 41 7 63 27 105 95 42 68 70 90 115 90 30 0 40 -5 45 -20
3 -11 11 -20 16 -20 5 0 9 -7 9 -15 0 -19 -19 -19 -44 0 -23 17 -35 18 -55 6
-11 -7 -9 -17 11 -53 22 -39 23 -48 11 -63 -47 -66 29 -109 118 -67 27 12 44
31 64 70 33 65 35 124 8 183 -12 24 -24 56 -27 71 -9 41 -66 92 -143 128 -83
40 -123 52 -188 56 -27 2 -81 6 -120 9 -38 3 -77 2 -85 -3z m35 -28 c13 -5 14
-8 3 -15 -20 -13 -38 -11 -38 6 0 16 9 19 35 9z m-45 -34 c0 -5 -12 -16 -27
-24 -16 -8 -53 -39 -83 -69 -61 -60 -61 -61 -137 -161 -72 -95 -142 -166 -163
-166 -10 0 -22 6 -28 13 -8 9 8 32 64 89 41 42 74 80 74 84 0 6 69 90 115 140
59 64 185 128 185 94z m403 -89 c16 -16 2 -24 -56 -32 -57 -7 -115 -27 -135
-46 -7 -7 -18 -13 -23 -13 -5 0 -14 -11 -19 -25 -5 -14 -14 -25 -19 -25 -5 0
-12 -12 -15 -26 -10 -39 -40 -28 -44 16 -2 28 4 42 32 73 19 20 39 37 44 37 6
0 12 7 16 15 3 8 13 15 23 15 10 0 27 8 38 16 23 18 139 14 158 -5z m-543
-116 c0 -18 -108 -135 -126 -135 -12 0 3 21 49 71 9 10 17 21 17 23 0 8 45 56
53 56 4 0 7 -7 7 -15z m-424 -30 c-26 -24 -46 -32 -46 -19 0 10 45 43 59 44 8
0 3 -10 -13 -25z m152 -49 c4 -19 -44 -69 -59 -61 -14 9 -11 35 6 41 8 3 17
15 20 25 8 23 29 20 33 -5z m-88 -46 c0 -5 -4 -10 -9 -10 -5 0 -11 -10 -13
-22 -2 -18 -12 -24 -43 -29 -47 -8 -49 -7 -40 20 11 35 105 71 105 41z m-338
-132 c-6 -6 -16 -7 -22 -3 -9 6 -9 9 1 16 17 10 34 0 21 -13z"/>
<path d="M5700 4090 c-91 -9 -104 -13 -232 -76 -43 -20 -78 -43 -78 -50 0 -6
-7 -14 -15 -18 -8 -3 -15 -14 -15 -23 0 -10 -13 -45 -30 -76 -44 -86 -39 -153
20 -232 39 -53 126 -70 169 -34 22 18 23 21 7 37 -20 23 -21 76 -1 92 21 17
15 54 -8 58 -10 2 -27 -4 -37 -13 -18 -17 -40 -13 -40 6 0 21 41 49 74 49 42
0 75 -30 121 -108 35 -61 54 -76 90 -74 23 2 60 -43 51 -61 -3 -7 -13 -22 -22
-34 -15 -21 -15 -23 1 -29 26 -10 113 36 146 77 24 30 29 46 29 90 0 35 6 59
17 71 15 17 14 20 -18 47 -19 16 -46 40 -61 53 -37 31 -37 58 0 58 20 0 40
-12 65 -37 21 -20 37 -40 37 -45 0 -14 63 -111 104 -160 40 -49 137 -128 156
-128 6 0 21 -7 34 -15 18 -12 48 -15 137 -13 l114 3 0 45 c0 36 4 45 19 48 11
2 25 -3 31 -11 18 -25 118 -87 140 -87 11 0 29 -7 39 -15 11 -8 31 -15 45 -15
14 0 44 -7 66 -15 24 -8 78 -14 134 -15 80 0 100 3 140 25 25 13 64 29 87 34
65 17 125 97 127 167 0 24 -2 47 -5 50 -4 3 -26 -14 -50 -38 -60 -61 -129 -83
-206 -68 -88 17 -165 41 -182 54 -8 7 -55 30 -105 50 -49 21 -94 42 -100 47
-14 14 -45 11 -45 -5 0 -7 8 -16 18 -20 9 -3 31 -15 47 -26 17 -11 39 -24 50
-30 117 -58 170 -99 151 -117 -5 -4 -11 -2 -13 5 -3 6 -13 12 -24 12 -11 0
-49 16 -85 35 -72 39 -75 41 -142 102 -96 85 -167 143 -178 143 -6 0 -17 7
-25 16 -9 11 -22 14 -46 9 -26 -5 -33 -3 -33 10 0 9 -5 13 -11 10 -10 -7 -41
7 -109 46 -19 12 -53 30 -75 41 -22 11 -52 27 -67 34 -14 8 -38 14 -53 14 -15
0 -39 7 -53 15 -75 40 -151 49 -302 35z m190 -35 c0 -16 -9 -19 -35 -9 -13 5
-14 8 -3 15 20 13 38 11 38 -6z m70 -30 c7 -8 18 -15 24 -15 11 0 118 -88 125
-103 1 -4 11 -16 20 -25 10 -9 39 -46 66 -82 52 -69 85 -108 125 -146 27 -26
17 -51 -17 -40 -30 10 -124 109 -181 190 -66 95 -178 206 -209 206 -7 0 -13 7
-13 15 0 9 9 15 24 15 13 0 29 -7 36 -15z m-280 -91 c51 -25 110 -75 110 -92
0 -5 7 -15 15 -22 20 -16 19 -44 -1 -61 -14 -12 -19 -10 -38 15 -47 61 -95
104 -124 111 -18 3 -34 11 -37 16 -4 5 -31 9 -61 9 -47 0 -55 3 -52 17 7 39
116 43 188 7z m439 -182 c13 -18 21 -36 17 -39 -11 -11 -106 102 -106 126 0
15 56 -40 89 -87z m361 51 c24 -21 26 -33 5 -33 -8 0 -15 7 -15 15 0 8 -7 15
-15 15 -8 0 -15 5 -15 10 0 15 17 12 40 -7z m-130 -48 c15 -17 68 -45 87 -45
24 0 63 -32 63 -51 0 -15 -7 -19 -40 -19 -32 0 -40 4 -40 18 0 10 -11 29 -24
41 -19 18 -28 21 -44 12 -22 -12 -42 2 -42 29 0 31 20 39 40 15z m195 -6 c12
-19 -5 -23 -22 -6 -16 16 -16 17 -1 17 9 0 20 -5 23 -11z"/>
<path d="M3312 3287 c-65 -37 -80 -116 -31 -171 41 -47 86 -56 134 -26 58 36
43 69 -23 49 -70 -20 -112 32 -70 86 24 31 33 31 76 -1 28 -22 36 -24 43 -13
11 17 12 66 2 72 -23 13 -110 16 -131 4z"/>
<path d="M3815 3287 c-17 -13 -16 -16 15 -48 18 -19 39 -44 48 -57 14 -21 13
-25 -12 -50 -41 -43 -34 -52 38 -52 76 0 91 13 53 46 -15 13 -27 29 -27 37 0
8 18 35 40 60 47 53 49 63 15 71 -35 9 -65 -9 -65 -39 0 -16 -6 -25 -15 -25
-9 0 -15 9 -15 25 0 14 -8 29 -19 35 -26 13 -33 13 -56 -3z"/>
<path d="M4103 3293 c-18 -7 -16 -21 7 -50 11 -14 20 -40 20 -58 0 -18 -9 -44
-20 -58 -34 -43 -27 -47 74 -47 l94 0 6 34 c12 64 -19 89 -50 40 -11 -16 -24
-24 -38 -22 -17 2 -22 11 -24 50 -3 41 0 49 22 64 15 9 26 22 26 29 0 18 -84
31 -117 18z"/>
<path d="M4421 3293 c-62 -25 -82 -127 -36 -181 69 -82 187 -19 172 92 -9 68
-77 112 -136 89z m69 -63 c30 -30 26 -72 -9 -93 -28 -16 -29 -16 -55 8 -32 29
-33 46 -3 79 27 31 41 32 67 6z"/>
<path d="M4640 3290 c-13 -8 -13 -13 3 -41 21 -38 22 -81 2 -120 -20 -38 -13
-49 35 -49 45 0 55 10 35 36 -16 21 -20 64 -6 64 5 0 23 -22 40 -50 20 -33 38
-50 51 -50 18 0 20 7 20 74 0 41 4 86 10 100 8 21 6 27 -10 36 -23 12 -70 3
-70 -14 1 -6 7 -22 15 -36 8 -14 14 -33 15 -43 0 -29 -38 2 -62 51 -12 23 -25
42 -29 42 -4 0 -13 2 -21 5 -7 3 -20 0 -28 -5z"/>
<path d="M5243 3283 c-27 -13 -33 -21 -33 -48 0 -40 26 -65 68 -65 36 0 49
-15 32 -35 -17 -21 -36 -19 -61 6 -29 29 -51 18 -47 -23 l3 -33 64 -3 c49 -2
68 1 82 14 35 32 18 104 -26 104 -36 0 -55 10 -55 31 0 23 13 24 45 3 29 -19
55 -12 55 13 0 29 -13 40 -55 46 -27 4 -51 1 -72 -10z"/>
<path d="M3530 3281 c0 -5 7 -22 15 -37 8 -16 15 -40 15 -54 0 -14 -7 -38 -15
-54 -28 -54 -24 -57 78 -54 l92 3 3 38 c2 28 -1 39 -14 44 -10 4 -19 2 -21 -4
-11 -32 -29 -43 -58 -35 -38 11 -41 38 -3 34 32 -3 42 10 34 44 -6 23 -36 35
-36 14 0 -5 -4 -10 -10 -10 -5 0 -10 9 -10 20 0 16 7 20 30 20 19 0 33 -7 40
-20 15 -28 38 -25 46 5 12 49 2 55 -96 55 -49 0 -90 -4 -90 -9z"/>
<path d="M4910 3278 c0 -7 7 -22 15 -32 19 -25 19 -83 0 -116 -27 -48 -22 -51
78 -48 l92 3 3 34 c5 45 -14 63 -37 35 -25 -30 -56 -38 -75 -19 -21 21 -11 37
19 29 26 -6 41 19 29 50 -7 17 -34 22 -34 6 0 -5 -4 -10 -10 -10 -5 0 -10 9
-10 20 0 27 37 26 67 -1 19 -19 25 -20 38 -9 9 8 15 25 13 39 -3 26 -4 26 -95
29 -71 2 -93 0 -93 -10z"/>
<path d="M5467 3284 c-3 -4 -2 -15 4 -26 9 -18 8 -96 -2 -153 -4 -19 1 -20 91
-20 l95 0 0 40 c0 34 -3 40 -20 37 -11 -2 -30 -13 -43 -25 -17 -16 -27 -19
-39 -11 -29 18 -26 34 7 41 19 3 35 13 37 23 3 10 16 23 30 29 19 9 24 17 21
39 -3 27 -4 27 -88 30 -47 1 -89 0 -93 -4z m123 -49 c0 -9 -9 -15 -25 -15 -16
0 -25 6 -25 15 0 9 9 15 25 15 16 0 25 -6 25 -15z"/>
<path d="M1059 3208 c-22 -8 -25 -28 -7 -46 14 -14 1934 -17 1956 -3 8 5 12
17 10 27 -3 18 -34 19 -971 24 -533 3 -977 2 -988 -2z"/>
<path d="M6851 3212 c-749 -1 -987 -5 -992 -14 -4 -7 -3 -20 2 -30 9 -17 56
-18 1009 -18 953 0 1000 1 1009 18 12 22 3 37 -24 43 -11 2 -463 3 -1004 1z"/>
<path d="M587 2886 c-75 -20 -87 -38 -89 -128 -1 -71 1 -79 30 -116 17 -21 65
-69 107 -107 l76 -68 -3 -65 -3 -66 -35 -7 c-19 -4 -63 -4 -97 0 -35 4 -68 4
-74 1 -5 -4 -9 -25 -7 -46 l3 -39 74 -7 c106 -9 166 3 203 39 27 27 30 38 35
110 7 104 -7 134 -106 220 -42 37 -84 77 -93 89 -27 33 -23 80 7 100 23 15 29
15 76 0 48 -16 52 -16 70 0 10 9 19 29 19 44 0 24 -5 27 -60 38 -34 7 -66 15
-73 17 -7 2 -34 -2 -60 -9z"/>
<path d="M1850 2881 c-28 -12 -52 -31 -66 -52 -76 -121 -70 -458 10 -554 31
-37 34 -38 102 -39 109 -2 144 26 170 133 35 146 21 379 -28 459 -35 58 -118
81 -188 53z m97 -93 c11 -13 26 -45 33 -72 17 -64 17 -244 0 -320 -12 -52 -18
-60 -47 -72 -52 -22 -76 -1 -96 85 -42 170 1 401 73 401 9 0 26 -10 37 -22z"/>
<path d="M3965 2871 c-78 -45 -80 -51 -80 -300 0 -119 3 -227 7 -241 4 -14 22
-41 39 -60 l32 -35 110 2 c60 1 111 4 113 5 2 3 7 290 5 325 -1 18 -35 25 -66
13 l-27 -10 3 -117 c4 -117 4 -117 -22 -132 -22 -12 -31 -12 -57 -2 -40 17
-51 51 -58 186 -8 135 9 252 41 284 23 24 24 24 67 8 24 -10 49 -17 55 -17 20
0 43 31 43 58 0 25 -5 28 -57 39 -32 7 -67 14 -78 18 -12 3 -39 -6 -70 -24z"/>
<path d="M4908 2881 c-25 -9 -55 -27 -66 -41 -30 -39 -45 -132 -45 -280 0
-169 13 -236 56 -284 34 -38 53 -42 179 -38 54 2 57 3 63 32 14 62 3 70 -88
67 -81 -2 -81 -2 -96 28 -20 40 -28 280 -12 357 13 60 38 82 76 67 61 -24 115
2 115 54 0 23 -4 27 -29 27 -16 0 -46 6 -67 14 -34 11 -45 11 -86 -3z"/>
<path d="M1072 2877 c-5 -7 -10 -142 -11 -302 -1 -159 -4 -298 -7 -307 -11
-35 86 -50 99 -15 5 14 -8 271 -19 365 -4 37 -3 62 3 62 17 0 50 -55 69 -114
33 -102 87 -110 119 -19 28 80 54 133 66 133 8 0 9 -51 5 -182 -4 -101 -9
-198 -12 -216 -4 -28 -1 -33 22 -42 16 -6 37 -7 52 -2 l25 8 -4 185 c-2 101
-3 241 -1 311 l3 127 -27 7 c-44 11 -77 -7 -85 -45 -4 -18 -12 -38 -18 -44 -6
-6 -11 -18 -11 -27 0 -30 -61 -156 -74 -153 -5 1 -18 23 -28 50 -11 26 -25 62
-33 78 -7 17 -22 52 -33 80 -16 40 -27 51 -55 61 -27 10 -38 10 -45 1z"/>
<path d="M2358 2876 c-10 -9 -11 -53 -6 -186 4 -96 5 -177 3 -180 -2 -3 -5
-64 -6 -135 -2 -129 -2 -130 22 -138 14 -5 35 -4 52 2 l29 11 -6 98 c-4 53 -9
119 -12 145 -6 45 -5 48 15 45 17 -2 31 -26 65 -110 70 -172 76 -181 126 -191
57 -12 72 3 46 46 -10 18 -43 79 -73 137 -30 58 -60 113 -66 122 -9 13 -9 23
-1 35 12 21 33 62 98 191 l46 93 -36 15 c-35 15 -38 14 -60 -7 -13 -12 -24
-27 -24 -33 0 -6 -21 -60 -46 -121 -43 -102 -76 -156 -89 -144 -2 3 0 68 6
143 7 83 7 142 2 147 -19 19 -72 28 -85 15z"/>
<path d="M5358 2882 c-10 -2 -18 -9 -19 -15 -4 -103 5 -492 12 -527 19 -88 79
-118 203 -102 40 6 54 13 77 42 l28 35 2 273 c2 157 -1 276 -7 281 -8 9 -44
15 -71 12 -10 -1 -13 -61 -13 -263 0 -145 -4 -268 -8 -274 -17 -26 -53 -36
-83 -24 -44 19 -50 60 -48 315 0 123 -2 228 -5 233 -7 12 -44 19 -68 14z"/>
<path d="M6953 2877 c-5 -7 -7 -137 -5 -289 l4 -277 32 -37 32 -37 85 0 c75
-1 90 2 115 22 46 36 53 79 55 354 2 277 3 272 -64 265 l-32 -3 4 -236 c4
-267 -1 -299 -51 -320 -25 -10 -34 -10 -57 4 l-26 16 -3 265 -2 266 -28 6
c-15 3 -32 7 -39 9 -6 2 -15 -2 -20 -8z"/>
<path d="M7585 2881 l-40 -6 -1 -175 c0 -96 -2 -237 -4 -314 -3 -154 0 -162
59 -150 41 8 46 31 32 135 -13 100 -14 156 -2 163 19 12 39 -7 56 -52 9 -26
23 -62 31 -79 8 -18 21 -50 30 -70 34 -81 39 -87 74 -95 62 -13 90 12 56 51
-12 15 -46 77 -61 111 -8 20 -28 55 -41 71 -23 29 -23 59 -1 71 42 22 46 38
47 164 0 102 -3 125 -17 142 -34 38 -110 50 -218 33z m131 -85 c16 -12 19 -26
18 -90 -1 -92 -11 -108 -68 -104 l-41 3 -3 88 c-2 57 1 94 9 103 15 18 60 18
85 0z"/>
<path d="M2939 2873 c-1 -9 0 -615 0 -624 1 -11 49 -20 74 -14 l22 6 -1 309
c-1 170 -5 313 -9 319 -7 12 -85 15 -86 4z"/>
<path d="M3293 2560 l-3 -320 45 0 c24 0 46 4 49 8 3 5 2 82 -2 173 -4 90 -6
174 -4 187 8 54 31 8 77 -153 9 -33 23 -81 31 -107 8 -26 14 -55 14 -65 0 -30
21 -43 70 -43 l45 0 -1 311 c-2 342 0 334 -62 327 l-27 -3 0 -205 c0 -128 -4
-206 -10 -208 -5 -2 -13 10 -17 25 -3 15 -11 42 -17 58 -6 17 -20 64 -32 105
-11 41 -24 86 -29 100 -5 14 -11 42 -15 62 -8 49 -28 68 -73 68 l-37 0 -2
-320z"/>
<path d="M5930 2561 l0 -320 128 -3 c145 -3 158 1 144 53 l-9 34 -83 0 -84 0
-1 275 0 275 -47 3 -48 3 0 -320z"/>
<path d="M6404 2856 c-10 -41 9 -61 58 -61 l43 0 -1 -277 -1 -276 32 -6 c69
-13 67 -24 64 283 l-2 276 44 1 c72 2 70 1 67 42 l-3 37 -147 3 -147 3 -7 -25z"/>
<path d="M8137 2873 c-3 -5 -5 -138 -6 -298 0 -159 -2 -299 -3 -310 -3 -19 4
-20 145 -23 l147 -3 0 47 0 46 -97 -3 -98 -4 -3 108 -3 109 78 -2 c111 -3 105
-6 101 43 l-3 42 -85 0 -85 0 0 85 0 85 95 0 95 0 0 40 0 40 -137 3 c-75 1
-139 -1 -141 -5z"/>
<path d="M1979 1997 c0 -1 -2 -48 -2 -105 l-2 -102 27 0 c43 0 61 10 47 26 -6
8 -9 29 -7 47 3 17 3 52 -1 76 -5 38 -10 46 -33 52 -16 4 -28 7 -29 6z"/>
<path d="M2308 1993 l-38 -4 0 -90 c0 -49 -1 -92 -2 -96 -2 -5 32 -9 75 -10
l77 -3 0 30 c0 19 -5 30 -14 30 -8 0 -15 14 -18 36 -3 27 0 38 14 45 10 5 18
16 18 24 0 14 -51 47 -67 43 -4 -1 -25 -3 -45 -5z m56 -45 c9 -33 8 -38 -8
-38 -20 0 -29 16 -21 40 8 26 21 25 29 -2z m6 -89 c9 -15 8 -24 -1 -35 -17
-20 -28 -17 -35 10 -11 44 16 63 36 25z"/>
<path d="M2900 1965 c0 -41 16 -46 30 -9 11 29 6 44 -16 44 -9 0 -14 -11 -14
-35z"/>
<path d="M3088 1993 l-36 -4 -4 -92 c-2 -51 -3 -95 -1 -99 3 -5 38 -8 79 -8
l74 0 0 29 c0 17 -6 31 -16 35 -14 5 -16 16 -10 62 7 60 -3 85 -33 82 -9 -1
-32 -3 -53 -5z m55 -53 c6 -23 -10 -37 -25 -22 -11 11 -1 55 12 47 4 -2 10
-14 13 -25z m2 -90 c0 -27 -22 -39 -31 -16 -8 22 3 49 19 43 6 -2 12 -14 12
-27z"/>
<path d="M3435 1990 c-4 -6 -1 -18 6 -26 11 -14 13 -14 21 0 15 26 -12 51 -27
26z"/>
<path d="M3619 1993 l-35 -4 0 -99 1 -98 58 -4 c33 -2 62 -1 67 2 16 11 20 47
6 59 -17 15 -36 7 -36 -15 0 -8 -7 -14 -16 -14 -13 0 -15 12 -12 73 2 39 8 80
12 90 4 9 4 16 0 15 -5 -1 -25 -3 -45 -5z"/>
<path d="M3805 1990 c-3 -5 8 -35 24 -67 25 -47 29 -66 24 -96 l-6 -38 39 3
39 3 -3 56 c-3 41 0 59 12 68 9 8 16 18 16 24 0 6 7 19 16 29 16 16 16 18 0
24 -30 11 -46 -3 -46 -42 0 -31 -2 -35 -15 -24 -8 7 -15 18 -15 25 0 25 -72
56 -85 35z"/>
<path d="M4540 1984 c-38 -21 -50 -44 -50 -99 0 -68 25 -93 96 -96 58 -3 74 4
74 32 0 27 -27 35 -49 15 -49 -44 -76 33 -38 112 13 27 24 28 32 2 4 -13 15
-20 31 -20 35 0 32 35 -6 55 -35 18 -56 18 -90 -1z"/>
<path d="M4810 1984 c-38 -21 -50 -44 -50 -98 1 -70 21 -92 89 -98 57 -6 81 7
81 43 0 24 -38 26 -54 3 -32 -43 -65 28 -43 93 14 42 32 53 42 24 3 -10 13
-22 21 -25 43 -16 47 37 4 59 -35 18 -56 18 -90 -1z"/>
<path d="M5082 1991 l-43 -6 -1 -95 -1 -95 67 -5 c69 -5 86 1 86 32 0 25 -30
36 -42 15 -10 -18 -38 -23 -38 -8 0 5 -3 16 -6 25 -5 12 0 16 20 16 35 0 36
35 2 44 -18 4 -23 11 -19 26 7 25 11 25 39 -1 l22 -21 11 21 c9 17 8 24 -9 41
-11 11 -26 19 -32 18 -7 0 -32 -4 -56 -7z"/>
<path d="M5340 1991 c0 -5 -9 -12 -19 -16 -24 -7 -32 -27 -25 -63 4 -21 17
-33 47 -48 23 -10 43 -25 45 -31 5 -19 -45 -16 -52 2 -6 17 -32 20 -41 5 -3
-6 -3 -19 0 -30 5 -17 15 -20 59 -20 42 0 57 5 74 23 12 13 22 29 22 36 0 22
-43 71 -63 71 -18 0 -46 25 -47 43 0 15 33 6 49 -15 10 -12 23 -18 29 -14 19
12 14 33 -13 50 -27 17 -65 22 -65 7z"/>
<path d="M5578 1974 c-60 -39 -50 -78 30 -118 17 -9 32 -21 32 -26 0 -16 -46
-12 -60 5 -21 25 -40 18 -40 -15 0 -30 0 -30 58 -30 66 0 92 18 92 61 0 30
-34 69 -59 69 -19 0 -31 18 -31 46 0 21 21 17 27 -5 5 -19 39 -35 55 -25 19
12 6 35 -28 49 -20 8 -37 15 -38 14 0 0 -18 -11 -38 -25z"/>
<path d="M5855 1984 c-45 -24 -55 -42 -55 -101 0 -65 24 -93 82 -93 75 0 107
46 93 130 -6 35 -13 43 -48 60 -22 11 -41 20 -41 20 -1 -1 -14 -8 -31 -16z
m50 -47 c11 -55 2 -111 -17 -115 -21 -4 -32 44 -23 104 8 53 31 59 40 11z"/>
<path d="M6613 1993 l-43 -4 -1 -85 c-1 -46 -2 -90 -3 -96 -1 -16 130 -28 145
-13 15 15 11 45 -7 52 -10 4 -20 0 -26 -10 -11 -21 -34 -22 -42 -1 -10 27 -7
34 19 34 18 0 25 5 25 20 0 13 -7 20 -20 20 -13 0 -20 7 -20 18 0 30 12 34 36
11 l22 -21 12 22 c21 39 -17 59 -97 53z"/>
<path d="M6858 1982 c-53 -32 -45 -91 15 -118 47 -22 60 -44 25 -44 -13 0 -29
9 -36 21 -11 16 -16 18 -28 9 -16 -15 -18 -42 -4 -56 6 -6 33 -9 63 -6 51 5
86 29 87 60 0 23 -40 72 -59 72 -17 0 -51 29 -51 43 0 15 33 5 49 -15 18 -22
41 -18 41 6 0 16 -43 46 -62 45 -7 0 -25 -8 -40 -17z"/>
<path d="M2094 1978 c-5 -7 -9 -52 -10 -100 l-1 -88 34 0 34 0 -3 98 c-3 91
-4 97 -25 100 -11 2 -25 -3 -29 -10z"/>
<path d="M2774 1949 c4 -24 11 -48 15 -54 5 -5 14 -29 20 -52 12 -46 44 -73
58 -51 15 25 31 81 27 93 -3 7 -13 15 -23 18 -11 3 -22 19 -28 43 -8 35 -12
39 -42 42 l-34 3 7 -42z"/>
<path d="M3310 1964 c0 -30 29 -84 45 -84 6 0 19 -19 30 -42 16 -34 25 -43 45
-43 23 0 25 4 24 43 -1 30 -7 48 -22 63 -12 11 -22 23 -22 28 0 19 -51 61 -75
61 -20 0 -25 -5 -25 -26z"/>
<path d="M6100 1988 c0 -1 -1 -47 -3 -100 l-3 -98 33 0 c19 0 36 6 41 16 8 14
10 14 21 0 17 -20 71 -21 71 -2 0 7 -7 30 -16 51 -11 27 -12 41 -5 48 15 15
14 52 -2 65 -12 10 -137 28 -137 20z m86 -49 c10 -17 -13 -36 -27 -22 -12 12
-4 33 11 33 5 0 12 -5 16 -11z m-8 -81 c-6 -18 -28 -21 -28 -4 0 9 7 16 16 16
9 0 14 -5 12 -12z"/>
<path d="M6380 1889 l0 -100 38 3 c22 2 37 8 36 16 -1 6 -2 50 -2 97 l-2 85
-35 0 -35 0 0 -101z"/>
<path d="M2583 1974 c-19 -8 -16 -57 6 -106 11 -24 22 -51 25 -60 4 -13 16
-18 40 -18 19 0 37 4 40 8 3 5 -5 28 -16 53 -29 61 -36 81 -40 104 -3 20 -31
29 -55 19z"/>
<path d="M4277 1974 c-4 -4 -7 -17 -7 -30 0 -25 -17 -67 -44 -107 -14 -21 -16
-30 -6 -41 17 -22 40 -8 40 24 0 17 7 30 17 34 19 8 33 -9 33 -41 0 -20 5 -23
45 -23 25 0 45 4 45 9 0 4 -11 28 -23 52 -13 24 -28 62 -33 84 -8 32 -15 41
-35 43 -13 2 -28 0 -32 -4z"/>
<path d="M615 1909 c-4 -5 -4 -20 -1 -32 l5 -22 548 2 c580 2 577 2 560 47 -6
15 -56 16 -556 16 -376 0 -552 -3 -556 -11z"/>
<path d="M7183 1904 c-17 -45 -20 -45 566 -45 499 0 556 2 564 16 5 10 4 21
-3 31 -11 12 -95 14 -567 14 -503 0 -554 -1 -560 -16z"/>
<path d="M2547 1883 c-4 -3 -7 -14 -7 -23 0 -10 -7 -23 -15 -30 -23 -19 -18
-40 9 -40 19 0 24 6 30 38 3 20 6 43 6 50 0 13 -13 16 -23 5z"/>
<path d="M3306 1830 c-20 -21 -14 -40 14 -40 24 0 31 11 23 38 -6 26 -12 27
-37 2z"/>
<path d="M2915 1589 c-161 -32 -251 -110 -228 -198 7 -28 21 -27 34 3 15 32
97 66 159 66 50 0 169 -28 206 -48 10 -6 37 -18 59 -27 22 -9 53 -23 68 -31
37 -18 63 -18 71 1 4 11 -2 15 -20 15 -13 0 -27 7 -30 15 -4 8 -14 15 -24 15
-10 0 -23 7 -30 15 -7 8 -21 15 -31 15 -9 0 -24 7 -33 15 -8 8 -25 19 -38 24
-21 8 -21 10 -5 16 10 4 28 3 40 -2 12 -6 33 -16 47 -22 38 -17 115 -69 160
-108 51 -45 141 -103 158 -103 12 0 23 -4 26 -9 3 -4 20 -11 38 -14 29 -5 89
-29 138 -56 50 -27 73 -36 173 -67 95 -29 127 -34 208 -34 90 0 179 17 219 41
8 5 22 12 30 15 8 3 22 10 30 15 8 5 24 13 35 18 21 9 33 28 59 94 23 58 65
60 66 4 0 -39 55 -100 110 -122 8 -4 22 -11 30 -16 8 -5 20 -11 25 -13 6 -1
26 -9 45 -16 19 -7 87 -14 150 -16 106 -4 122 -2 206 26 50 16 101 30 112 30
11 0 25 7 32 15 7 8 17 15 22 15 5 0 46 18 91 39 45 22 100 43 121 47 35 6
132 66 177 109 20 19 39 19 39 0 0 -16 35 -21 44 -6 3 5 18 12 33 15 16 4 55
20 88 35 77 37 134 52 214 58 73 5 132 -14 167 -56 24 -28 54 -23 54 9 0 55
-68 134 -125 144 -18 4 -46 13 -61 20 -16 8 -53 17 -82 21 -60 8 -211 -10
-259 -31 -17 -8 -36 -14 -42 -14 -19 0 -87 -40 -111 -65 -28 -30 -50 -18 -50
25 0 36 -13 40 -117 40 -71 0 -95 -4 -137 -24 -80 -39 -146 -100 -209 -197
-32 -49 -64 -89 -71 -89 -8 0 -19 -7 -26 -15 -10 -12 -16 -13 -27 -3 -26 21
-10 51 40 78 43 22 47 28 41 50 -4 14 -6 35 -6 47 2 27 -22 86 -42 102 -25 21
-89 51 -108 51 -26 0 -29 -14 -7 -33 10 -9 19 -21 19 -26 0 -15 -30 -41 -46
-41 -29 0 -72 -30 -78 -54 -3 -13 -22 -41 -42 -61 -34 -35 -38 -37 -82 -30
-53 8 -57 10 -47 24 3 6 24 11 46 11 43 0 47 8 23 45 -13 21 -14 29 -3 60 17
46 3 57 -64 52 -54 -5 -83 -26 -92 -68 -10 -44 -21 -43 -52 5 -15 25 -38 49
-51 55 -25 12 -72 14 -96 5 -18 -7 -21 -41 -7 -63 6 -10 4 -25 -5 -42 -21 -41
-18 -49 20 -49 44 0 55 -17 21 -30 -54 -20 -86 -4 -135 70 -31 46 -60 70 -87
70 -40 0 -54 60 -17 74 8 3 14 10 14 16 0 17 -39 11 -90 -12 -54 -25 -91 -77
-89 -125 1 -15 -2 -36 -6 -45 -7 -19 37 -68 61 -68 17 0 30 -48 16 -62 -6 -6
-19 -5 -38 5 -26 14 -64 50 -64 62 0 2 -14 26 -32 52 -50 76 -127 144 -208
186 -29 14 -55 17 -135 15 l-100 -3 -5 -34 c-6 -43 -20 -48 -56 -19 -57 45
-133 74 -249 94 -88 15 -129 16 -190 3z m2955 -108 c0 -5 -10 -13 -22 -17 -12
-3 -28 -13 -36 -20 -7 -8 -19 -14 -26 -14 -8 0 -19 -7 -26 -15 -7 -8 -20 -15
-30 -15 -10 0 -20 -7 -24 -15 -3 -8 -15 -15 -26 -15 -11 0 -20 7 -20 15 0 8 7
15 15 15 9 0 18 7 21 15 4 8 15 15 25 15 11 0 22 7 25 15 4 8 14 15 23 15 9 0
27 7 41 14 30 17 60 20 60 7z m-2232 -47 c21 -15 63 -59 96 -98 87 -106 156
-176 172 -176 8 0 14 -7 14 -15 0 -8 -8 -15 -19 -15 -10 0 -24 7 -31 15 -7 8
-18 15 -24 15 -15 0 -94 77 -188 183 -77 87 -84 97 -71 110 9 10 12 9 51 -19z
m1727 17 c3 -5 -16 -32 -42 -60 -27 -27 -68 -73 -93 -102 -86 -100 -176 -169
-200 -154 -14 9 -12 25 3 25 12 0 96 85 153 156 75 92 89 106 123 123 44 23
48 24 56 12z m-1880 -24 c23 -17 12 -37 -21 -37 -28 0 -44 28 -23 41 19 12 22
11 44 -4z m2025 -12 c0 -22 -51 -40 -62 -23 -16 26 -8 38 27 38 25 0 35 -4 35
-15z m-1413 -115 c19 -22 43 -40 53 -40 9 0 23 -6 29 -14 6 -7 36 -16 67 -19
31 -3 58 -8 61 -11 13 -13 -12 -24 -67 -30 -73 -8 -118 9 -172 67 -36 37 -47
65 -31 80 13 14 27 6 60 -33z m813 5 c0 -23 -66 -83 -117 -106 -39 -18 -55
-20 -101 -12 -76 11 -78 29 -3 38 33 4 65 13 72 21 6 8 17 14 25 14 7 0 26 12
41 26 45 42 83 51 83 19z"/>
</g>
</svg>
